# xmcd
#
# Track frame offsets:
# 150
# 772
# 23933
# 45590
# 70674
# 93171
# 118119
# 141637
# 165165
# 189214
# 213704
# 235012
# 257424
# 285829
# 310431
# 328814
#
# Disc length: 4712 seconds
#
#
# Revision: 1
# Processed by: cddbd v1.5.2PL0 Copyright (c) Steve Scherf et al.
# Submitted via: FreeRIP 2.951 
#
DISCID=ce126610
DTITLE=Kjell Eriksson - Nattens grymma stjärnor CD3
DYEAR=2004
DGENRE=Ljudbok
TTITLE0=03.01
TTITLE1=03.02
TTITLE2=03.03
TTITLE3=03.04
TTITLE4=03.05
TTITLE5=03.06
TTITLE6=03.07
TTITLE7=03.08
TTITLE8=03.09
TTITLE9=03.10
TTITLE10=03.11
TTITLE11=03.12
TTITLE12=03.13
TTITLE13=03.14
TTITLE14=03.15
TTITLE15=03.16
EXTD=Uppläsare: Katarina Ewerlöf
EXTT0=
EXTT1=
EXTT2=
EXTT3=
EXTT4=
EXTT5=
EXTT6=
EXTT7=
EXTT8=
EXTT9=
EXTT10=
EXTT11=
EXTT12=
EXTT13=
EXTT14=
EXTT15=
PLAYORDER=
